{
    "asset" : {
        "generator" : "Khronos glTF Blender I/O v1.3.48",
        "version" : "2.0"
    },
    "scene" : 0,
    "scenes" : [
        {
            "name" : "Scene",
            "nodes" : [
                1,
                2
            ]
        }
    ],
    "nodes" : [
        {
            "camera" : 0,
            "name" : "Camera_Orientation",
            "rotation" : [
                -0.7071067690849304,
                0,
                0,
                0.7071067690849304
            ]
        },
        {
            "children" : [
                0
            ],
            "name" : "Camera",
            "rotation" : [
                0.3900204300880432,
                -0.46562454104423523,
                0.23978736996650696,
                0.7573505640029907
            ],
            "translation" : [
                -7.359345436096191,
                6.899341583251953,
                3.8266708850860596
            ]
        },
        {
            "mesh" : 0,
            "name" : "solid crate",
            "scale" : [
                1.1106759309768677,
                1.1106759309768677,
                1.1106759309768677
            ],
            "translation" : [
                0.00826525129377842,
                2.236691951751709,
                -0.02864859625697136
            ]
        }
    ],
    "cameras" : [
        {
            "name" : "Camera",
            "perspective" : {
                "aspectRatio" : 1.7777777777777777,
                "yfov" : 0.39959648408210363,
                "zfar" : 1000,
                "znear" : 0.10000000149011612
            },
            "type" : "perspective"
        }
    ],
    "materials" : [
        {
            "doubleSided" : true,
            "emissiveFactor" : [
                0,
                0,
                0
            ],
            "name" : "Material",
            "pbrMetallicRoughness" : {
                "baseColorFactor" : [
                    0.006416166666895151,
                    0.024870378896594048,
                    0.8000000715255737,
                    1
                ],
                "metallicFactor" : 1,
                "roughnessFactor" : 0.6527777910232544
            }
        }
    ],
    "meshes" : [
        {
            "name" : "Plane.016",
            "primitives" : [
                {
                    "attributes" : {
                        "POSITION" : 0,
                        "NORMAL" : 1
                    },
                    "indices" : 2,
                    "material" : 0
                }
            ]
        }
    ],
    "accessors" : [
        {
            "bufferView" : 0,
            "componentType" : 5126,
            "count" : 25391,
            "max" : [
                1.1415730714797974,
                0.027911443263292313,
                1.1530519723892212
            ],
            "min" : [
                -1.1415730714797974,
                -2.051082134246826,
                -1.1530519723892212
            ],
            "type" : "VEC3"
        },
        {
            "bufferView" : 1,
            "componentType" : 5126,
            "count" : 25391,
            "type" : "VEC3"
        },
        {
            "bufferView" : 2,
            "componentType" : 5123,
            "count" : 53628,
            "type" : "SCALAR"
        }
    ],
    "bufferViews" : [
        {
            "buffer" : 0,
            "byteLength" : 304692,
            "byteOffset" : 0
        },
        {
            "buffer" : 0,
            "byteLength" : 304692,
            "byteOffset" : 304692
        },
        {
            "buffer" : 0,
            "byteLength" : 107256,
            "byteOffset" : 609384
        }
    ],
    "buffers" : [
        {
            "byteLength" : 716640,
            "uri" : "data:application/octet-stream;base64,"
        }
    ]
}
